<?xml version="1.0" standalone="no"?><svg xmlns="http://www.w3.org/2000/svg" viewBox="0 0 1440 320"><path fill="#273039" fill-opacity="1" d="M0,128L9.6,149.3C19.2,171,38,213,58,240C76.8,267,96,277,115,261.3C134.4,245,154,203,173,192C192,181,211,203,230,213.3C249.6,224,269,224,288,197.3C307.2,171,326,117,346,122.7C364.8,128,384,192,403,197.3C422.4,203,442,149,461,128C480,107,499,117,518,128C537.6,139,557,149,576,149.3C595.2,149,614,139,634,160C652.8,181,672,235,691,218.7C710.4,203,730,117,749,80C768,43,787,53,806,53.3C825.6,53,845,43,864,80C883.2,117,902,203,922,218.7C940.8,235,960,181,979,160C998.4,139,1018,149,1037,133.3C1056,117,1075,75,1094,90.7C1113.6,107,1133,181,1152,208C1171.2,235,1190,213,1210,208C1228.8,203,1248,213,1267,208C1286.4,203,1306,181,1325,149.3C1344,117,1363,75,1382,90.7C1401.6,107,1421,181,1430,218.7L1440,256L1440,0L1430.4,0C1420.8,0,1402,0,1382,0C1363.2,0,1344,0,1325,0C1305.6,0,1286,0,1267,0C1248,0,1229,0,1210,0C1190.4,0,1171,0,1152,0C1132.8,0,1114,0,1094,0C1075.2,0,1056,0,1037,0C1017.6,0,998,0,979,0C960,0,941,0,922,0C902.4,0,883,0,864,0C844.8,0,826,0,806,0C787.2,0,768,0,749,0C729.6,0,710,0,691,0C672,0,653,0,634,0C614.4,0,595,0,576,0C556.8,0,538,0,518,0C499.2,0,480,0,461,0C441.6,0,422,0,403,0C384,0,365,0,346,0C326.4,0,307,0,288,0C268.8,0,250,0,230,0C211.2,0,192,0,173,0C153.6,0,134,0,115,0C96,0,77,0,58,0C38.4,0,19,0,10,0L0,0Z"></path></svg>
